<svg xmlns="http://www.w3.org/2000/svg" width="32" height="32" viewBox="0 0 32 32">
  <style>
    path { fill: #24292e; }
    @media (prefers-color-scheme: dark) {
      path { fill: #ffffff; }
    }
  </style>
  <path fill-rule="evenodd" clip-rule="evenodd" d="M16 2C8.268 2 2 8.268 2 16c0 6.187 4.02 11.43 9.593 13.267.7.13.957-.304.957-.677 0-.334-.012-1.216-.018-2.386-3.902.848-4.726-1.88-4.726-1.88-.638-1.622-1.558-2.052-1.558-2.052-1.273-.87.096-.852.096-.852 1.408.099 2.15 1.446 2.15 1.446 1.252 2.145 3.284 1.525 4.084 1.166.127-.907.49-1.526.891-1.877-3.117-.354-6.395-1.558-6.395-6.932 0-1.532.547-2.783 1.443-3.765-.144-.354-.625-1.778.137-3.705 0 0 1.176-.377 3.854 1.436A13.376 13.376 0 0116 8.862c1.197.006 2.404.162 3.532.477 2.676-1.813 3.851-1.436 3.851-1.436.764 1.927.283 3.351.139 3.705.899.982 1.443 2.233 1.443 3.765 0 5.387-3.284 6.574-6.411 6.92.504.434.953 1.29.953 2.6 0 1.877-.017 3.391-.017 3.853 0 .376.255.815.964.677C25.983 27.427 30 22.187 30 16c0-7.732-6.268-14-14-14z"/>
  <path d="M15 22.5v-3h2v3h-2zm0-12h2v8h-2v-8z"/>
</svg> 