<?xml version="1.0" encoding="UTF-8"?>
<svg width="32" height="32" viewBox="0 0 32 32" fill="none" xmlns="http://www.w3.org/2000/svg">
  <!-- Background Circle -->
  <circle cx="16" cy="16" r="16" fill="#2D333B"/>
  <!-- GitHub-style Octocat silhouette -->
  <path d="M16 6C10.477 6 6 10.477 6 16C6 20.991 9.657 25.128 14.438 26.879C15.094 26.999 15.313 26.586 15.313 26.226C15.313 25.904 15.301 25.131 15.301 24.277C12 24.903 11.187 23.025 11.187 23.025C10.547 21.815 9.697 21.403 9.697 21.403C8.547 20.661 9.782 20.661 9.782 20.661C11.062 20.745 11.798 21.965 11.798 21.965C12.938 23.737 14.625 23.083 15.361 22.723C15.481 22.003 15.841 21.487 16.231 21.211C13.605 20.935 10.859 19.897 10.859 15.589C10.859 14.339 11.391 13.337 12.157 12.551C12.023 12.207 11.547 11.037 12.277 9.45C12.277 9.45 13.019 9.09 15.301 10.62C16.169 10.322 17.089 10.173 18.009 10.173C18.929 10.173 19.849 10.322 20.717 10.62C22.999 9.09 23.741 9.45 23.741 9.45C24.471 11.037 23.995 12.207 23.861 12.551C24.627 13.337 25.159 14.339 25.159 15.589C25.159 19.897 22.413 20.935 19.787 21.211C20.283 21.571 20.717 22.259 20.717 23.335C20.717 24.879 20.705 25.784 20.705 26.226C20.705 26.586 20.924 26.999 21.58 26.879C26.361 25.128 30.018 20.991 30.018 16C30.018 10.477 25.541 6 20.018 6H16z" fill="white"/>
</svg> 